<?xml version="1.0" encoding="utf-8"?>
<svg enable-background="new 0 0 24 24" height="24px" viewBox="0 0 1024 500" width="24px"
    fill="#000000" xmlns="http://www.w3.org/2000/svg">
    <rect x="-3.617" y="-1.464" width="1029.302" height="504.837"
        style="stroke: rgba(0, 0, 0, 0); fill: rgb(98, 0, 238);" />
    <g transform="matrix(16.308365, 0, 0, 16.132063, -19.533716, -16.22411)">
        <text
            style="fill: rgb(255, 255, 255); font-family: Aladin; font-size: 72.7487px; white-space: pre;"
            transform="matrix(0.066588, 0, 0, 0.067315, 29.112934, 16.211857)">
            <tspan>Clava</tspan>
            <tspan x="0" dy="1em">​</tspan>
            <tspan>Court Manager</tspan>
        </text>
    </g>
    <g style="" transform="matrix(12.002579, 0, 0, 11.872825, 144.270828, 109.748543)">
        <path
            d="M 19.72 2.49 C 17.38 0.15 13.1 0.62 10.17 3.55 C 8.57 5.15 7.65 7.42 7.63 9.01 C 7.61 10.59 7.89 12.9 6.28 14.51 L 2.04 18.75 L 3.46 20.17 L 7.7 15.93 C 9.31 14.32 11.62 14.6 13.2 14.58 C 14.78 14.56 17.06 13.64 18.66 12.04 C 21.58 9.11 22.06 4.83 19.72 2.49 Z M 10.52 11.68 C 8.99 10.15 9.47 7.07 11.58 4.96 C 13.69 2.85 16.76 2.37 18.3 3.9 C 19.83 5.43 19.35 8.51 17.24 10.62 C 15.13 12.73 12.06 13.21 10.52 11.68 Z"
            style="fill: rgb(255, 255, 255);" />
        <path
            d="M 18.2 17 C 18.73 17 19.24 17.21 19.61 17.59 C 20.39 18.37 20.39 19.64 19.61 20.42 C 19.24 20.79 18.73 21 18.2 21 C 17.67 21 17.16 20.79 16.79 20.41 C 16.01 19.63 16.01 18.36 16.79 17.58 C 17.16 17.21 17.67 17 18.2 17 M 18.2 15 C 17.18 15 16.15 15.39 15.37 16.17 C 13.81 17.73 13.81 20.26 15.37 21.83 C 16.15 22.61 17.18 23 18.2 23 C 19.22 23 20.25 22.61 21.03 21.83 C 22.59 20.27 22.59 17.74 21.03 16.17 C 20.25 15.39 19.22 15 18.2 15 Z"
            style="fill: rgb(255, 255, 255);" />
    </g>
</svg>